<?xml version="1.0" encoding="UTF-8" standalone="no"?>
<svg
   xmlns:dc="http://purl.org/dc/elements/1.1/"
   xmlns:cc="http://creativecommons.org/ns#"
   xmlns:rdf="http://www.w3.org/1999/02/22-rdf-syntax-ns#"
   xmlns:svg="http://www.w3.org/2000/svg"
   xmlns="http://www.w3.org/2000/svg"
   version="1.1"
   id="svg2"
   viewBox="0 0 400 400.00001">
  <defs
     id="defs4" />
  <metadata
     id="metadata7">
    <rdf:RDF>
      <cc:Work
         rdf:about="">
        <dc:format>image/svg+xml</dc:format>
        <dc:type
           rdf:resource="http://purl.org/dc/dcmitype/StillImage" />
        <dc:title></dc:title>
      </cc:Work>
    </rdf:RDF>
  </metadata>
  <g
     transform="translate(0,-652.36216)"
     id="layer1" />
  <g
     id="layer2">
    <path
       id="path4169"
       d="M 198.064,379.04242 C 184.60621,372.65715 173.83685,366.20597 159.12666,355.71771 132.89354,337.0137 111.73859,316.60092 93.171557,292.07645 57.887546,245.47118 37.200935,191.38364 30.975075,129.45651 29.761118,117.38152 29.337391,108.88415 29.336395,96.59405 L 29.3355,85.546456 30.856499,85.296632 c 0.836533,-0.137411 6.696505,-1.377939 13.022153,-2.756746 23.477292,-5.117343 42.863171,-10.557791 62.527358,-17.547657 10.56256,-3.754591 12.55716,-4.584555 40.95833,-17.043133 32.66522,-14.329068 38.36526,-16.519583 47.50568,-18.256309 4.60498,-0.874969 14.19767,-0.876216 19.11298,-0.0025 9.84377,1.7498 11.65684,2.441604 46.94859,17.91401 14.83472,6.503754 29.16245,12.669227 31.83938,13.701049 24.76495,9.545595 50.85986,16.903913 83.91239,23.661838 l 3.19851,0.653962 -0.23372,14.255426 c -0.29303,17.873698 -1.43072,31.075568 -4.17981,48.503448 -8.0552,51.06588 -27.99231,98.61216 -58.28922,139.00893 -13.60636,18.1422 -26.41081,31.94932 -44.65743,48.15438 -22.55857,20.03455 -38.42515,31.27597 -60.96686,43.19477 -3.62243,1.91533 -6.63399,3.4818 -6.69237,3.48102 -0.0584,-7.2e-4 -3.11767,-1.43031 -6.79846,-3.17671 z m 14.10267,-17.32149 c 23.50389,-13.96824 47.54974,-32.74448 64.75138,-50.56121 42.44169,-43.95931 68.68382,-93.70858 80.72534,-153.0374 3.2529,-16.02707 5.26505,-33.89455 6.15911,-54.69145 l 0.27403,-6.374249 -2.19099,-0.545773 c -1.20505,-0.300183 -5.84138,-1.375789 -10.30294,-2.390253 -27.02128,-6.144012 -47.62687,-12.825142 -77.06533,-24.987555 -3.1221,-1.289885 -14.0724,-6.026976 -24.334,-10.526868 -27.10654,-11.886681 -31.0831,-13.494149 -35.69258,-14.428264 -2.32051,-0.470254 -13.27745,-0.810043 -16.32461,-0.506249 -5.78907,0.577156 -11.14667,2.555279 -32.54733,12.017099 -51.96443,22.974899 -75.16456,31.167014 -110.353705,38.966541 -4.111175,0.911233 -8.09565,1.833293 -8.854393,2.049024 l -1.379541,0.392237 0.273205,6.89514 c 0.60934,15.37902 1.911628,29.97423 3.736033,41.87103 5.831438,38.02625 16.478725,70.16498 33.80599,102.04311 23.936411,44.03741 61.477131,83.18201 104.266531,108.72122 5.54015,3.30669 16.74171,9.35039 17.34745,9.35967 0.28335,0.004 3.75121,-1.91528 7.70635,-4.2658 z"
       style="fill:#ff0000;stroke:#feeded;stroke-width:1.10788405;stroke-opacity:1" />
    <g
       style="fill:#800000;fill-opacity:0.52121211"
       transform="matrix(0.53980738,0,0,0.47342698,60.997682,76.684739)"
       id="g4425">
      <g
         style="fill:#800000;fill-opacity:0.52121211"
         id="g4375">
        <path
           style="fill:#800000;fill-opacity:0.52121211"
           d="m 213.809,417.105 -0.011,0 c -1.726,0 -3.331,-0.513 -4.672,-1.395 l -27.74,-16.289 -11.864,11.864 c -3.326,3.326 -8.717,3.326 -12.042,0 -3.326,-3.326 -3.326,-8.717 0,-12.043 L 174,382.722 c 2.741,-2.742 6.988,-3.286 10.333,-1.322 l 33.778,19.835 c 1.335,0.783 2.406,1.899 3.133,3.209 0.686,1.227 1.076,2.64 1.076,4.145 -0.001,4.703 -3.808,8.516 -8.511,8.516 z"
           id="path4377" />
        <path
           style="fill:#800000;fill-opacity:0.52121211"
           d="m 213.8,376.534 c -1.588,0 -3.177,-0.442 -4.567,-1.328 l -27.849,-16.353 -11.864,11.864 c -3.326,3.326 -8.717,3.326 -12.042,0 -3.326,-3.326 -3.326,-8.717 0,-12.043 l 16.52,-16.52 c 2.741,-2.742 6.988,-3.286 10.333,-1.322 l 33.778,19.835 c 0.594,0.349 1.143,0.769 1.636,1.25 3.365,3.285 3.436,8.682 0.151,12.048 -1.669,1.711 -3.882,2.569 -6.096,2.569 z"
           id="path4379" />
        <path
           style="fill:#800000;fill-opacity:0.52121211"
           d="m 213.8,335.967 c -1.588,0 -3.177,-0.442 -4.567,-1.328 L 181.384,318.286 169.52,330.15 c -3.326,3.326 -8.717,3.326 -12.042,0 -3.326,-3.326 -3.326,-8.717 0,-12.043 l 16.52,-16.52 c 2.741,-2.742 6.988,-3.286 10.333,-1.322 L 218.11,320.1 c 0.594,0.349 1.143,0.769 1.636,1.25 3.365,3.285 3.436,8.682 0.151,12.048 -1.67,1.711 -3.883,2.569 -6.097,2.569 z"
           id="path4381" />
        <path
           style="fill:#800000;fill-opacity:0.52121211"
           d="m 298.221,417.106 c -2.92,0 -5.764,-1.503 -7.35,-4.204 -2.382,-4.056 -1.025,-9.273 3.029,-11.655 l 33.789,-19.846 c 3.345,-1.964 7.595,-1.42 10.337,1.324 l 16.508,16.52 c 3.324,3.327 3.322,8.719 -0.005,12.043 -3.326,3.324 -8.717,3.322 -12.042,-0.005 l -11.852,-11.86 -28.11,16.511 c -1.354,0.794 -2.839,1.172 -4.304,1.172 z"
           id="path4383" />
        <path
           style="fill:#800000;fill-opacity:0.52121211"
           d="m 298.221,376.539 c -2.92,0 -5.764,-1.503 -7.35,-4.204 -2.382,-4.056 -1.025,-9.273 3.029,-11.655 l 33.789,-19.846 c 3.345,-1.964 7.595,-1.42 10.337,1.324 l 16.508,16.52 c 3.324,3.327 3.322,8.719 -0.005,12.043 -3.326,3.324 -8.717,3.322 -12.042,-0.005 l -11.852,-11.86 -28.11,16.511 c -1.354,0.794 -2.839,1.172 -4.304,1.172 z"
           id="path4385" />
        <path
           style="fill:#800000;fill-opacity:0.52121211"
           d="m 298.221,335.972 c -2.92,0 -5.764,-1.503 -7.35,-4.204 -2.382,-4.056 -1.025,-9.273 3.029,-11.655 l 33.789,-19.846 c 3.345,-1.965 7.595,-1.42 10.337,1.324 l 16.508,16.52 c 3.324,3.327 3.322,8.719 -0.005,12.043 -3.326,3.324 -8.717,3.322 -12.042,-0.005 l -11.852,-11.86 -28.11,16.511 c -1.354,0.794 -2.839,1.172 -4.304,1.172 z"
           id="path4387" />
        <path
           style="fill:#800000;fill-opacity:0.52121211"
           d="m 398.598,351.048 c -4.703,0 -8.515,-3.813 -8.515,-8.515 0,-36.5 -6.334,-72.257 -18.826,-106.277 -24.128,-65.753 -65.27,-108.376 -81.308,-123.232 l -27.069,37.035 c -1.603,2.194 -4.158,3.49 -6.875,3.49 -2.717,0 -5.272,-1.297 -6.875,-3.489 l -27.08,-37.037 c -16.03,14.849 -57.178,57.47 -81.309,123.232 -12.485,34.034 -18.814,69.792 -18.814,106.278 0,4.703 -3.813,8.515 -8.515,8.515 -4.703,0 -8.515,-3.813 -8.515,-8.515 0,-38.494 6.681,-76.225 19.857,-112.145 32.022,-87.267 90.9,-134.61 93.39,-136.583 1.815,-1.437 4.136,-2.074 6.432,-1.762 2.295,0.311 4.363,1.543 5.729,3.412 l 25.699,35.149 25.689,-35.148 c 1.367,-1.869 3.435,-3.102 5.729,-3.413 2.296,-0.311 4.616,0.325 6.433,1.762 2.49,1.973 61.367,49.316 93.39,136.582 13.183,35.905 19.868,73.636 19.868,112.146 0,4.703 -3.812,8.515 -8.515,8.515 z"
           id="path4389" />
        <path
           style="fill:#800000;fill-opacity:0.52121211"
           d="m 301.083,261.594 -3.218,-16.724 8.362,-1.609 c 23.405,-4.503 47.099,-10.576 70.425,-18.049 11.65,-3.729 20.498,-6.962 25.567,-8.892 0.614,-10.924 1.159,-39.076 -5.629,-77.962 -0.084,-0.484 -0.127,-0.973 -0.127,-1.465 l 0,-8.515 17.031,-0.023 0,7.803 c 9.085,52.539 5.429,85.721 5.269,87.114 -0.355,3.073 -2.348,5.712 -5.207,6.894 -0.489,0.202 -12.196,5.02 -31.71,11.265 -23.97,7.68 -48.331,13.922 -72.402,18.554 l -8.361,1.609 z"
           id="path4391" />
        <path
           style="fill:#800000;fill-opacity:0.52121211"
           d="m 210.917,261.594 -8.362,-1.609 c -24.07,-4.631 -48.431,-10.875 -72.404,-18.556 -19.51,-6.245 -31.218,-11.062 -31.707,-11.264 -2.86,-1.182 -4.854,-3.822 -5.207,-6.896 -0.16,-1.393 -3.805,-34.573 5.281,-87.111 l 0,-7.781 17.031,-0.023 0,8.538 c 0,0.49 -0.043,0.981 -0.127,1.465 -6.787,38.88 -6.249,67.031 -5.638,77.962 5.069,1.93 13.916,5.164 25.562,8.891 23.33,7.474 47.025,13.547 70.429,18.05 l 8.362,1.609 -3.22,16.725 z"
           id="path4393" />
        <path
           style="fill:#800000;fill-opacity:0.52121211"
           d="m 342.613,447.976 c -6.79,-6.778 -16.168,-10.99 -26.522,-10.99 l -9.935,0 0,-149.394 0,-15.135 -0.011,0 c 1.805,-5.847 2.01,-12.921 1.067,-20.766 -5.552,-46.165 -51.206,-118.636 -51.206,-118.636 0,0 -45.654,72.471 -51.217,118.636 -0.942,7.845 -0.727,14.93 1.067,20.766 l -0.011,0 0,164.528 -9.935,0 c -10.355,0 -19.733,4.212 -26.511,10.99 -6.79,6.79 -10.99,16.168 -10.99,26.522 0,20.709 16.792,37.502 37.502,37.502 l 120.18,0 c 20.709,0 37.513,-16.792 37.513,-37.502 -10e-4,-10.353 -4.213,-19.732 -10.991,-26.521 z"
           id="path4395" />
      </g>
      <path
         style="fill:#800000;fill-opacity:0.52121211"
         d="m 197.011,474.498 c 0,-10.355 4.201,-19.733 10.99,-26.523 6.778,-6.778 16.156,-10.99 26.511,-10.99 l 9.935,0 0,-28.395 0,-0.011 0,-40.567 0,-3.463 0,-37.104 0,-6.949 0,-48.038 0.011,0 c -1.794,-5.836 -2.01,-12.921 -1.067,-20.766 3.109,-25.794 18.732,-59.797 31.916,-84.786 -10.41,-19.735 -19.301,-33.85 -19.301,-33.85 0,0 -45.654,72.471 -51.217,118.636 -0.942,7.845 -0.727,14.93 1.067,20.766 l -0.011,0 0,48.038 0,6.949 0,37.104 0,3.463 0,40.567 0,0.011 0,28.396 -9.935,0 c -10.355,0 -19.733,4.212 -26.511,10.99 -6.79,6.79 -10.99,16.168 -10.99,26.522 0,20.709 16.792,37.502 37.502,37.502 l 38.489,0 0.114,0 c -20.71,0 -37.503,-16.792 -37.503,-37.502 z"
         id="path4397" />
      <g
         style="fill:#800000;fill-opacity:0.52121211"
         id="g4399">
        <path
           style="fill:#800000;fill-opacity:0.52121211"
           d="m 404.979,136.893 c -5.938,2.657 -12.523,4.144 -19.449,4.144 0,0 -19.653,-75.264 -47.561,-81.997 l 0,-59.04 1.646,0 c 51.626,0 93.476,41.85 93.476,93.476 0,13.136 -5.325,25.024 -13.931,33.63 -4.065,4.065 -8.867,7.403 -14.181,9.787 z"
           id="path4401" />
        <path
           style="fill:#800000;fill-opacity:0.52121211"
           d="M 107.032,136.893 C 101.707,134.509 96.904,131.171 92.84,127.106 84.234,118.5 78.909,106.612 78.909,93.476 78.909,41.85 120.77,0 172.396,0 l 1.635,0 0,59.04 c -27.896,6.733 -47.561,81.997 -47.561,81.997 -6.926,0 -13.5,-1.476 -19.438,-4.144 z"
           id="path4403" />
      </g>
      <path
         style="fill:#800000;fill-opacity:0.52121211"
         d="m 118.954,127.106 c -8.606,-8.606 -13.931,-20.494 -13.931,-33.63 0,-43.154 29.256,-79.456 69.008,-90.216 l 0,-3.26 -1.635,0 C 120.77,0 78.909,41.85 78.909,93.476 c 0,13.136 5.325,25.024 13.931,33.63 4.065,4.065 8.867,7.403 14.192,9.787 5.938,2.668 12.512,4.144 19.438,4.144 l 0,-7.82 c -2.71,-1.784 -5.233,-3.828 -7.516,-6.111 z"
         id="path4405" />
      <g
         style="fill:#800000;fill-opacity:0.52121211"
         id="g4407">
        <circle
           style="fill:#800000;fill-opacity:0.52121211"
           cx="240.757"
           cy="207.638"
           r="8.5150003"
           id="circle4409" />
        <circle
           style="fill:#800000;fill-opacity:0.52121211"
           cx="271.254"
           cy="207.638"
           r="8.5150003"
           id="circle4411" />
      </g>
      <g
         style="fill:#800000;fill-opacity:0.52121211"
         id="g4413">
        <path
           style="fill:#800000;fill-opacity:0.52121211"
           d="m 385.53,119.442 0,21.595 c -13.125,0 -25.024,-5.325 -33.63,-13.931 -8.606,-8.606 -13.931,-20.494 -13.931,-33.63 l 0,-34.436 c 27.907,6.733 47.561,31.7 47.561,60.402 z"
           id="path4415" />
        <path
           style="fill:#800000;fill-opacity:0.52121211"
           d="m 174.031,59.04 0,34.436 c 0,13.136 -5.325,25.024 -13.931,33.63 -8.606,8.606 -20.494,13.931 -33.63,13.931 l 0,-21.595 c 0,-28.702 19.665,-53.669 47.561,-60.402 z"
           id="path4417" />
      </g>
    </g>
    <path
       id="path4460"
       d="m 197.81657,120.18616 c 0.35296,-6.13684 0.36398,-6.41686 0.2641,-6.71271 -0.1764,-0.52248 -0.83282,-0.98646 -1.39563,-0.98646 -0.11796,0 -3.02067,0.46018 -13.21842,2.09562 -0.46058,0.0739 -0.83739,0.11826 -0.83733,0.0987 6e-5,-0.0197 0.42667,-1.10573 0.94804,-2.41363 0.52136,-1.3079 0.94793,-2.44865 0.94793,-2.535 0,-0.47022 0.17567,-0.33038 -7.83666,-6.2382 -4.15372,-3.06272 -7.56034,-5.59072 -7.57025,-5.617769 -0.009,-0.02709 0.76908,-0.383999 1.73104,-0.793198 1.4934,-0.635269 1.77768,-0.776304 1.9452,-0.964959 0.36398,-0.409904 0.36359,-0.411418 -1.30322,-5.045271 -0.81427,-2.263709 -1.45917,-4.123814 -1.43311,-4.133563 0.0262,-0.01053 2.0048,0.361455 4.39726,0.824929 3.03692,0.588316 4.4237,0.833973 4.59437,0.813804 0.13689,-0.01584 0.34555,-0.102419 0.47403,-0.195765 0.20192,-0.146771 0.33588,-0.393325 1.11317,-2.048444 0.48601,-1.034842 0.90151,-1.874905 0.92334,-1.866775 0.0218,0.0089 1.58044,1.521811 3.46354,3.363771 3.68166,3.601246 3.67598,3.596477 4.19135,3.507781 0.4504,-0.07743 0.82435,-0.412526 0.90712,-0.812593 0.0226,-0.108573 -0.57575,-3.043038 -1.61244,-7.909367 -0.90648,-4.255169 -1.6406,-7.741672 -1.6314,-7.747761 0.009,-0.0053 0.69935,0.350561 1.53363,0.792616 3.674,1.946673 3.89669,2.056558 4.16807,2.056453 0.32858,-1.07e-4 0.64456,-0.14818 0.85977,-0.402847 0.0937,-0.11087 1.34424,-2.306156 2.77911,-4.878542 1.43488,-2.572385 2.62964,-4.677075 2.65503,-4.677075 0.0255,0 1.24596,2.148826 2.71238,4.775169 2.06279,3.694482 2.71501,4.814201 2.88189,4.947651 0.23815,0.190433 0.55113,0.267286 0.86805,0.213153 0.114,-0.01954 1.40093,-0.665504 2.85992,-1.435631 1.45898,-0.770126 2.66016,-1.395699 2.66928,-1.39019 0.009,0.0053 -0.72502,3.491606 -1.63142,7.746863 -1.03692,4.867824 -1.63478,7.800856 -1.61228,7.909508 0.0828,0.400102 0.45676,0.735089 0.90713,0.812593 0.51523,0.0887 0.50977,0.09327 4.1932,-3.507781 1.88411,-1.84196 3.44281,-3.355693 3.46378,-3.363859 0.0209,-0.0089 0.43563,0.831757 0.9215,1.866495 0.77673,1.654184 0.9111,1.901514 1.11294,2.048532 0.12917,0.09397 0.33654,0.179732 0.47403,0.195852 0.17002,0.01989 1.57044,-0.227389 4.59941,-0.812292 2.3952,-0.462523 4.37397,-0.833658 4.39724,-0.824735 0.0234,0.0089 -0.62386,1.868341 -1.43813,4.13205 -1.66484,4.62838 -1.66679,4.635843 -1.30583,5.042349 0.16417,0.18489 0.45945,0.331203 1.94347,0.962953 0.96244,0.40971 1.7499,0.762824 1.7499,0.784698 0,0.02182 -3.3985,2.546237 -7.5522,5.609687 -4.15373,3.06347 -7.60952,5.64325 -7.67959,5.73286 -0.07,0.0896 -0.14365,0.27526 -0.16351,0.41249 -0.0319,0.22006 0.0765,0.53211 0.9167,2.63847 0.52405,1.31389 0.94581,2.40349 0.93723,2.42134 -0.008,0.0178 -3.1299,-0.46708 -6.93628,-1.07763 -3.80636,-0.61054 -6.99382,-1.11085 -7.08323,-1.11178 -0.56163,-0.005 -1.22376,0.44563 -1.41246,0.96304 -0.10261,0.28147 -0.0937,0.52203 0.24365,6.47074 0.19266,3.39812 0.35791,6.28849 0.36726,6.42303 l 0.017,0.24465 -1.4235,0 -1.42348,0 0.36834,-6.40398 z"
       style="fill:#ff0000" />
  </g>
</svg>
